<?xml version="1.0" encoding="iso-8859-1"?>
<!-- Generator: Adobe Illustrator 19.0.0, SVG Export Plug-In . SVG Version: 6.00 Build 0)  -->
<svg version="1.1" id="Layer_1" xmlns="http://www.w3.org/2000/svg" xmlns:xlink="http://www.w3.org/1999/xlink" x="0px" y="0px"
	 viewBox="0 0 512 512" style="enable-background:new 0 0 512 512;" xml:space="preserve">
<path style="fill:#ACB3BA;" d="M468.267,199.467L263.467,6.4L262.4,5.333c-1.067,0-1.067-1.067-2.133-1.067
	c-1.067,0-1.067,0-2.133,0s-1.067,0-2.133,0s-1.067,0-2.133,0c-1.067,0-1.067,0-2.133,0c-1.067,0-1.067,1.067-2.133,1.067
	c0,0-1.067,0-1.067,1.067l-204.8,193.067c-4.267,4.267-4.267,10.667,0,14.933c2.133,2.133,5.333,3.2,7.467,3.2
	s5.333-1.067,7.467-3.2L256,28.8l197.333,186.667c2.133,2.133,4.267,3.2,7.467,3.2s5.333-1.067,7.467-3.2
	C472.533,210.133,472.533,203.733,468.267,199.467z"/>
<path style="fill:#CDD6E0;" d="M469.333,512H42.667C19.2,512,0,492.8,0,469.333V237.867C0,214.4,19.2,195.2,42.667,195.2h426.667
	C492.8,195.2,512,214.4,512,237.867v231.467C512,492.8,492.8,512,469.333,512z"/>
<rect x="42.667" y="237.867" style="fill:#F2F2F2;" width="426.667" height="231.467"/>
<circle style="fill:#40596B;" cx="256" cy="41.6" r="41.6"/>
<circle style="fill:#FFFFFF;" cx="256" cy="41.6" r="19.2"/>
<g>
	<path style="fill:#FF7058;" d="M116.267,328.533c0-7.467,5.333-11.733,13.867-11.733c7.467,0,14.933,3.2,21.333,8.533l7.467-12.8
		c-7.467-7.467-17.067-10.667-28.8-10.667c-19.2,0-30.933,12.8-30.933,27.733c0,33.067,44.8,26.667,44.8,46.933
		c0,7.467-5.333,13.867-16,13.867c-9.6,0-18.133-4.267-23.467-10.667L96,392.533c7.467,7.467,18.133,12.8,32,12.8
		c21.333,0,32-12.8,32-28.8C161.067,342.4,116.267,346.667,116.267,328.533z"/>
	<path style="fill:#FF7058;" d="M209.067,304L179.2,403.2h18.133l5.333-19.2h33.067l5.333,19.2H259.2L229.333,304H209.067z
		 M205.867,369.067l12.8-48l12.8,48H205.867z"/>
	<polygon style="fill:#FF7058;" points="298.667,304 282.667,304 282.667,403.2 333.867,403.2 333.867,388.267 298.667,388.267 	"/>
	<polygon style="fill:#FF7058;" points="416,317.867 416,304 361.6,304 361.6,403.2 416,403.2 416,388.267 377.6,388.267 
		377.6,359.467 414.933,359.467 414.933,345.6 377.6,345.6 377.6,317.867 	"/>
</g>
<g>
</g>
<g>
</g>
<g>
</g>
<g>
</g>
<g>
</g>
<g>
</g>
<g>
</g>
<g>
</g>
<g>
</g>
<g>
</g>
<g>
</g>
<g>
</g>
<g>
</g>
<g>
</g>
<g>
</g>
</svg>
