<?xml version="1.0"?>
<svg xmlns="http://www.w3.org/2000/svg" xmlns:xlink="http://www.w3.org/1999/xlink" version="1.1" id="Layer_1" x="0px" y="0px" viewBox="0 0 512 512" style="enable-background:new 0 0 512 512;" xml:space="preserve" width="512px" height="512px" class=""><g><circle style="fill:#40596B;" cx="256" cy="256" r="256" data-original="#40596B" class=""/><circle style="fill:#F2F2F2;" cx="256" cy="256" r="216.533" data-original="#F2F2F2" class=""/><path style="fill:#FFD15C;" d="M256,54.4v68.267c-37.333,0-70.4,14.933-94.933,39.467l-48-48C149.333,76.8,200.533,54.4,256,54.4z" data-original="#FFD15C"/><path style="fill:#ACB3BA;" d="M162.133,161.067c-24.533,24.533-39.467,57.6-39.467,93.867H54.4  c0-55.467,22.4-106.667,58.667-142.933L162.133,161.067z" data-original="#ACB3BA" class=""/><path style="fill:#F8B64C;" d="M398.933,113.067l-48,48c-24.533-24.533-57.6-39.467-93.867-39.467V54.4  C311.467,54.4,362.667,76.8,398.933,113.067z" data-original="#F8B64C"/><path style="fill:#FF7058;" d="M457.6,256h-68.267c0-37.333-14.933-70.4-39.467-93.867l48-48C435.2,149.333,457.6,200.533,457.6,256  z" data-original="#FF7058"/><path style="fill:#F1543F;" d="M457.6,256c0,55.467-22.4,106.667-58.667,142.933l-48-48C375.467,326.4,390.4,293.333,390.4,256  L457.6,256L457.6,256z" data-original="#F1543F" class=""/><path style="fill:#CDD6E0;" d="M162.133,349.867l-48,48C76.8,362.667,54.4,311.467,54.4,256h68.267  C122.667,293.333,137.6,326.4,162.133,349.867z" data-original="#CDD6E0" class=""/><path style="fill:#40596B;" d="M272,302.933c-16,9.6-36.267,4.267-45.867-11.733s-4.267-36.267,11.733-45.867  c16-9.6,184.533-72.533,184.533-72.533S288,293.333,272,302.933z" data-original="#40596B" class=""/><circle style="fill:#FFFFFF" cx="256" cy="273.067" r="14.933" data-original="#FFFFFF" class="active-path"/></g> </svg>
